{"title":"Empire 2015 S03E04 1080p WEB-DL HEVC DD5.1x265","uid":16035511,"size":759013799,"categoryP":"video","categoryS":"hd___tv_shows","magnet":"?xt=urn:btih:56a4d7a179a5c851461cfcf6cfa0c419c58e2d82&amp;dn=Empire+2015+S03E04+1080p+WEB-DL+HEVC+DD5.1x265&amp;tr=udp%3A%2F%2Ftracker.leechers-paradise.org%3A6969&amp;tr=udp%3A%2F%2Fzer0day.ch%3A1337&amp;tr=udp%3A%2F%2Fopen.demonii.com%3A1337&amp;tr=udp%3A%2F%2Ftracker.coppersurfer.tk%3A6969&amp;tr=udp%3A%2F%2Fexodus.desync.com%3A6969","seeders":2,"leechers":2,"uploader":"nayhtut","files":1,"time":1476477731,"description":"Source:Empire 2015 S03E04 1080p WEB-DL DD5.1 x264-DRACULA(1.79 GB)\r\n\r\n\r\nComplete name: Empire.2015.S03E04.1080p.WEB-DL.HEVC.DD5.1.x265.mkv\r\nFormat                                   : Matroska\r\nFormat version                           : Version 4 / Version 2\r\nFile size                                : 724 MiB\r\nDuration                                 : 44mn 44s\r\nOverall bit rate                         : 2 262 Kbps\r\nWriting application                      : Lavf57.25.100\r\nWriting library                          : Lavf57.25.100\r\n\r\nVideo\r\n\r\nID                                       : 1\r\nFormat                                   : V_MPEGH/ISO/HEVC\r\nCodec ID                                 : V_MPEGH/ISO/HEVC\r\nDuration                                 : 44mn 44s\r\nBit rate                                 : 1 833 Kbps\r\nWidth                                    : 1 920 pixels\r\nHeight                                   : 1 080 pixels\r\nDisplay aspect ratio                     : 16:9\r\nFrame rate                               : 25.000 fps\r\nBits/(Pixel*Frame)                       : 0.035\r\nStream size                              : 587 MiB (81%)\r\nWriting library                          : Lavc57.48.101 libx265\r\nLanguage                                 : English\r\nDefault                                  : Yes\r\nForced                                   : No\r\nDURATION                                 : 00:44:44.291000000\r\n\r\nAudio\r\n\r\nID                                       : 2\r\nFormat                                   : AC-3\r\nFormat/Info                              : Audio Coding 3\r\nMode extension                           : CM (complete main)\r\nFormat settings, Endianness              : Big\r\nCodec ID                                 : A_AC3\r\nDuration                                 : 44mn 44s\r\nBit rate mode                            : Constant\r\nBit rate                                 : 384 Kbps\r\nChannel(s)                               : 6 channels\r\nChannel positions                        : Front: L C R, Side: L R, LFE\r\nSampling rate                            : 48.0 KHz\r\nBit depth                                : 16 bits\r\nCompression mode                         : Lossy\r\nStream size                              : 123 MiB (17%)\r\nWriting library                          : Lavc57.24.102 ac3\r\nLanguage                                 : English\r\nDefault                                  : Yes\r\nForced                                   : No\r\nDURATION                                 : 00:44:44.287000000\r\n\r\nText\r\n\r\nID                                       : 3\r\nFormat                                   : ASS\r\nCodec ID                                 : S_TEXT/ASS\r\nCompression mode                         : Lossless\r\nLanguage                                 : English","torrent":{"xt":"urn:btih:56a4d7a179a5c851461cfcf6cfa0c419c58e2d82","amp;dn":"Empire+2015+S03E04+1080p+WEB-DL+HEVC+DD5.1x265","amp;tr":["udp%3A%2F%2Ftracker.leechers-paradise.org%3A6969","udp%3A%2F%2Fzer0day.ch%3A1337","udp%3A%2F%2Fopen.demonii.com%3A1337","udp%3A%2F%2Ftracker.coppersurfer.tk%3A6969","udp%3A%2F%2Fexodus.desync.com%3A6969"],"infoHash":"56a4d7a179a5c851461cfcf6cfa0c419c58e2d82","infoHashBuffer":{"type":"Buffer","data":[86,164,215,161,121,165,200,81,70,28,252,246,207,160,196,25,197,142,45,130]},"announce":[],"urlList":[]}}